<svg width="79" height="50" viewBox="0 0 79 50" fill="none" xmlns="http://www.w3.org/2000/svg">
<path d="M51.2376 49.2535C50.7782 49.2904 50.3144 49.309 49.846 49.3093H17.1714C14.9223 49.3177 12.6937 48.882 10.6133 48.0271C8.53303 47.1722 6.64197 45.915 5.04864 44.3276C3.45531 42.7402 2.19106 40.8538 1.32842 38.7767C0.465784 36.6996 0.0217285 34.4726 0.0217285 32.2235C0.0217285 29.9744 0.465784 27.7474 1.32842 25.6703C2.19106 23.5932 3.45531 21.7068 5.04864 20.1194C6.64197 18.532 8.53303 17.2748 10.6133 16.4199C12.6937 15.565 14.9223 15.1293 17.1714 15.1377H29.3542C33.3039 6.44774 42.4006 0.365383 52.9908 0.365383C67.2052 0.365383 78.7284 11.3219 78.7284 24.8374C78.7284 38.3528 67.2052 49.3093 52.9908 49.3093C52.4015 49.3093 51.8171 49.2907 51.2376 49.2535Z" fill="url(#paint0_linear_2_77)"/>
<defs>
<linearGradient id="paint0_linear_2_77" x1="31.8979" y1="6.53234" x2="47.589" y2="51.9627" gradientUnits="userSpaceOnUse">
<stop stop-color="white" stop-opacity="0.596"/>
<stop offset="1" stop-color="#F7F7F7" stop-opacity="0.204"/>
</linearGradient>
</defs>
</svg>
